<?xml version="1.0" encoding="utf-8"?>
<!-- Generator: Adobe Illustrator 19.0.0, SVG Export Plug-In . SVG Version: 6.00 Build 0)  -->
<svg version="1.1" id="Layer_1" xmlns="http://www.w3.org/2000/svg" xmlns:xlink="http://www.w3.org/1999/xlink" x="0px" y="0px"
	 viewBox="-293 385 24 24" style="enable-background:new -293 385 24 24;" xml:space="preserve">
<style type="text/css">
	.st0{fill:#FFFFFF;}
</style>
<path class="st0" d="M-280.9,403.5l-0.1,0.1l-0.1-0.1c-4.8-4.3-7.9-7.2-7.9-10c0-2,1.5-3.5,3.5-3.5c1.5,0,3,1,3.6,2.4h1.9
	c0.5-1.4,2-2.4,3.6-2.4c2,0,3.5,1.5,3.5,3.5C-273,396.4-276.1,399.2-280.9,403.5 M-276.5,388c-1.7,0-3.4,0.8-4.5,2.1
	c-1.1-1.3-2.8-2.1-4.5-2.1c-3.1,0-5.5,2.4-5.5,5.5c0,3.8,3.4,6.9,8.5,11.5l1.5,1.3l1.5-1.3c5.1-4.7,8.5-7.8,8.5-11.5
	C-271,390.4-273.4,388-276.5,388z"/>
</svg>
