<?xml version="1.0" encoding="utf-8"?>
<!-- Generator: Adobe Illustrator 19.0.0, SVG Export Plug-In . SVG Version: 6.00 Build 0)  -->
<svg version="1.1" id="Layer_1" xmlns="http://www.w3.org/2000/svg" xmlns:xlink="http://www.w3.org/1999/xlink" x="0px" y="0px"
	 viewBox="-293 385 24 24" style="enable-background:new -293 385 24 24;" xml:space="preserve">
<style type="text/css">
	.st0{fill:#FFFFFF;}
</style>
<g id="Page-1">
	<g id="Core" transform="translate(-296.000000, -296.000000)">
		<g id="language" transform="translate(296.000000, 296.000000)">
			<path id="Shape" class="st0" d="M-280.7,388.7c-4.4,0-8,3.6-8,8c0,4.4,3.6,8,8,8c4.4,0,8-3.6,8-8
				C-272.7,392.3-276.3,388.7-280.7,388.7L-280.7,388.7z M-275.2,393.5h-2.3c-0.2-1-0.6-1.9-1.1-2.9
				C-277.2,391.2-275.9,392.2-275.2,393.5L-275.2,393.5z M-280.7,390.3c0.6,1,1.2,2,1.5,3.2h-3
				C-281.9,392.4-281.4,391.3-280.7,390.3L-280.7,390.3z M-286.9,398.3c-0.2-0.5-0.2-1-0.2-1.6c0-0.6,0.1-1.1,0.2-1.6h2.7
				c-0.1,0.6-0.1,1-0.1,1.6c0,0.6,0.1,1,0.1,1.6H-286.9L-286.9,398.3z M-286.3,399.9h2.3c0.2,1,0.6,1.9,1.1,2.9
				C-284.3,402.2-285.5,401.3-286.3,399.9L-286.3,399.9z M-283.9,393.5h-2.3c0.8-1.4,2-2.3,3.4-2.9
				C-283.3,391.6-283.7,392.5-283.9,393.5L-283.9,393.5z M-280.7,403.1c-0.6-1-1.2-2-1.5-3.2h3C-279.5,401-280.1,402.2-280.7,403.1
				L-280.7,403.1z M-278.9,398.3h-3.7c-0.1-0.6-0.2-1-0.2-1.6c0-0.6,0.1-1,0.2-1.6h3.8c0.1,0.6,0.2,1,0.2,1.6
				C-278.7,397.3-278.8,397.8-278.9,398.3L-278.9,398.3z M-278.7,402.8c0.5-0.9,0.9-1.8,1.1-2.9h2.3
				C-275.9,401.3-277.2,402.2-278.7,402.8L-278.7,402.8z M-277.2,398.3c0.1-0.6,0.1-1,0.1-1.6c0-0.6-0.1-1-0.1-1.6h2.7
				c0.2,0.5,0.2,1,0.2,1.6c0,0.6-0.1,1.1-0.2,1.6H-277.2L-277.2,398.3z"/>
		</g>
	</g>
</g>
</svg>
